<svg width="24" height="25" viewBox="0 0 24 25" fill="none" xmlns="http://www.w3.org/2000/svg">
<g clip-path="url(#clip0_1291_228)">
<path d="M22.2234 0.230469H1.77187C0.792187 0.230469 0 1.00391 0 1.96016V22.4961C0 23.4523 0.792187 24.2305 1.77187 24.2305H22.2234C23.2031 24.2305 24 23.4523 24 22.5008V1.96016C24 1.00391 23.2031 0.230469 22.2234 0.230469ZM7.12031 20.682H3.55781V9.22578H7.12031V20.682ZM5.33906 7.66484C4.19531 7.66484 3.27188 6.74141 3.27188 5.60234C3.27188 4.46328 4.19531 3.53984 5.33906 3.53984C6.47813 3.53984 7.40156 4.46328 7.40156 5.60234C7.40156 6.73672 6.47813 7.66484 5.33906 7.66484ZM20.4516 20.682H16.8937V15.1133C16.8937 13.7867 16.8703 12.0758 15.0422 12.0758C13.1906 12.0758 12.9094 13.5242 12.9094 15.0195V20.682H9.35625V9.22578H12.7687V10.7914H12.8156C13.2891 9.89141 14.4516 8.93984 16.1813 8.93984C19.7859 8.93984 20.4516 11.3117 20.4516 14.3961V20.682Z" fill="#E3E3E3"/>
</g>
<defs>
<clipPath id="clip0_1291_228">
<rect width="24" height="24" fill="white" transform="translate(0 0.230469)"/>
</clipPath>
</defs>
</svg>
