<svg width="126" height="37" viewBox="0 0 126 37" fill="none" xmlns="http://www.w3.org/2000/svg">
<path d="M10.6109 23.1707H28.5344L31.2973 29.9113L3.87028 29.49V13.4811H0.5V7.16185H3.87028V0H10.6109V7.16185H16.5931V13.4811H10.6109V23.1707Z" fill="#F2F2F2"/>
<path d="M31.2973 29.9113C21.3549 29.9113 19.7541 23.0022 19.7541 18.4102C19.7541 12.133 22.366 6.74057 29.8228 6.74057C37.0268 6.74057 39.6387 11.8381 39.6387 17.9046V20.4323H26.7474C27.2108 22.7494 28.6011 23.592 32.1399 23.592C32.9824 23.592 35.131 23.592 38.2064 23.0443V29.2793C34.9203 29.9113 32.8982 29.9113 31.2973 29.9113ZM26.5368 16.2195H32.856C32.6454 13.9867 31.6764 13.0599 29.6964 13.0599C27.7164 13.0599 26.7474 13.9867 26.5368 16.2195Z" fill="#F2F2F2"/>
<path d="M56.9012 13.4811H50.582V29.49H43.8414V7.16185H76.7017V29.49H69.9611V13.4811H63.6418V29.49H56.9012V13.4811Z" fill="#F2F2F2"/>
<path d="M94.5806 6.74057C100.774 6.74057 104.017 12.133 104.017 18.3259C104.017 24.5188 100.774 29.9113 94.5806 29.9113C92.2635 29.9113 90.115 29.1951 88.5141 26.7516V36.2306H81.7735V7.16185H88.5141V9.90021C90.115 7.45676 92.2635 6.74057 94.5806 6.74057ZM92.8955 23.592C95.7602 23.592 97.2768 21.9068 97.2768 18.3259C97.2768 14.745 95.7602 13.0599 92.8955 13.0599C90.0307 13.0599 88.5141 14.745 88.5141 18.3259C88.5141 21.9068 90.0307 23.592 92.8955 23.592Z" fill="#F2F2F2"/>
<path d="M107.404 0H114.145V29.49H107.404V0Z" fill="#F2F2F2"/>
<path d="M118.759 0H125.5V29.49H118.759V0Z" fill="#F2F2F2"/>
</svg>
