<svg width="125" height="37" viewBox="0 0 125 37" fill="none" xmlns="http://www.w3.org/2000/svg">
<path d="M10.1109 23.5555H28.0344L30.7973 30.296L3.37028 29.8748V13.8659H0V7.54662H3.37028V0.384766H10.1109V7.54662H16.0931V13.8659H10.1109V23.5555Z" fill="#474554"/>
<path d="M30.7973 30.296C20.8549 30.296 19.2541 23.387 19.2541 18.7949C19.2541 12.5178 21.866 7.12533 29.3228 7.12533C36.5268 7.12533 39.1387 12.2229 39.1387 18.2894V20.8171H26.2474C26.7108 23.1342 28.1011 23.9768 31.6399 23.9768C32.4824 23.9768 34.631 23.9768 37.7064 23.4291V29.6641C34.4203 30.296 32.3982 30.296 30.7973 30.296ZM26.0368 16.6043H32.356C32.1454 14.3714 31.1764 13.4446 29.1964 13.4446C27.2164 13.4446 26.2474 14.3714 26.0368 16.6043Z" fill="#474554"/>
<path d="M56.4012 13.8659H50.082V29.8748H43.3414V7.54662H76.2017V29.8748H69.4611V13.8659H63.1418V29.8748H56.4012V13.8659Z" fill="#474554"/>
<path d="M94.0806 7.12533C100.274 7.12533 103.517 12.5178 103.517 18.7107C103.517 24.9036 100.274 30.296 94.0806 30.296C91.7635 30.296 89.615 29.5799 88.0141 27.1364V36.6153H81.2735V7.54662H88.0141V10.285C89.615 7.84152 91.7635 7.12533 94.0806 7.12533ZM92.3955 23.9768C95.2602 23.9768 96.7768 22.2916 96.7768 18.7107C96.7768 15.1298 95.2602 13.4446 92.3955 13.4446C89.5307 13.4446 88.0141 15.1298 88.0141 18.7107C88.0141 22.2916 89.5307 23.9768 92.3955 23.9768Z" fill="#474554"/>
<path d="M106.904 0.384766H113.645V29.8748H106.904V0.384766Z" fill="#474554"/>
<path d="M118.259 0.384766H125V29.8748H118.259V0.384766Z" fill="#474554"/>
</svg>
